<svg width="127" height="40" viewBox="0 0 127 40" fill="none" xmlns="http://www.w3.org/2000/svg">
<path d="M31.9407 10.0873C32.1287 10.0163 32.3097 9.92831 32.5027 9.87231C32.5107 13.6173 32.5027 17.3613 32.5027 21.1063C32.5027 22.3923 32.5027 23.6782 32.5027 24.9642C32.2517 25.0882 31.9847 25.1733 31.7277 25.2843C31.2277 25.4843 30.7227 25.6903 30.2177 25.8903C30.0638 25.9596 29.9055 26.0184 29.7437 26.0663C29.7267 25.2663 29.7437 24.4663 29.7367 23.6663C29.7367 19.7329 29.7367 15.8023 29.7367 11.8743C29.7457 11.5743 29.7177 11.2693 29.7497 10.9683C30.4787 10.6683 31.2127 10.3863 31.9407 10.0873Z" fill="white"/>
<path d="M54.5497 10.2094C54.8397 10.1014 55.1177 9.96331 55.4127 9.87231C55.4267 11.5573 55.4127 13.2433 55.4187 14.9283C55.4187 18.1783 55.4187 21.428 55.4187 24.6774C56.5187 24.1564 57.6037 23.6254 58.6987 23.1044C59.1317 22.8854 59.5786 22.6964 60.0056 22.4674C60.0226 21.6514 60.0057 20.8333 60.0127 20.0173C60.0197 19.7533 59.9987 19.4883 60.0227 19.2253C60.5537 18.9653 61.0897 18.7174 61.6227 18.4624C61.766 18.3871 61.9136 18.3203 62.0647 18.2623C62.0827 19.5483 62.0647 20.8364 62.0737 22.1234C62.0829 22.6323 61.965 23.1355 61.7307 23.5874C61.4872 24.0381 61.1556 24.4353 60.7556 24.7554C60.9256 24.6844 61.0896 24.6004 61.2556 24.5214C64.351 23.0434 67.4467 21.566 70.5427 20.0894C72.0287 19.3894 73.5077 18.6674 74.9967 17.9694V18.9434C74.9807 19.0434 74.9627 19.1434 74.9487 19.2434C74.8268 20.0305 74.4036 20.7394 73.7687 21.2203C73.439 21.4459 73.0871 21.6372 72.7186 21.7914L61.0447 27.3663C60.8918 27.4491 60.7327 27.5197 60.5687 27.5774C60.5487 26.6854 60.5687 25.7924 60.5597 24.9004C60.3169 25.0604 60.0617 25.2007 59.7966 25.3203C58.312 26.0343 56.827 26.7477 55.3417 27.4603C55.0054 27.6125 54.6322 27.6641 54.2672 27.6089C53.9022 27.5537 53.561 27.3942 53.2847 27.1494C53.0842 26.9733 52.9236 26.7563 52.8136 26.5132C52.7036 26.27 52.6467 26.0063 52.6467 25.7394C52.6467 21.1767 52.6467 16.6141 52.6467 12.0514C52.6547 11.6914 52.6297 11.3314 52.6577 10.9724C53.2917 10.7114 53.9197 10.4644 54.5497 10.2094Z" fill="white"/>
<path d="M16.1326 10.1113C16.3096 10.0443 16.4816 9.96338 16.6626 9.91138C16.6716 14.1694 16.6626 18.4273 16.6626 22.6853C16.6626 23.0023 16.6766 23.3194 16.6626 23.6354C16.6418 23.9462 16.5399 24.2461 16.3671 24.5052C16.1942 24.7644 15.9565 24.9737 15.6775 25.1123C14.3155 25.7783 12.9435 26.4224 11.5775 27.0724L5.97756 29.7273C5.41514 29.9835 4.80552 30.1197 4.18755 30.1273C3.56621 30.1358 2.95069 30.0068 2.38503 29.7495C1.81938 29.4923 1.31758 29.1132 0.91555 28.6394C0.467902 28.0974 0.171229 27.4467 0.0555344 26.7533C-0.0389123 26.1558 -0.00470737 25.545 0.155846 24.9618C0.316399 24.3786 0.5996 23.8363 0.986534 23.3713C1.38616 22.8904 1.88306 22.4995 2.44454 22.2244C5.29921 20.8737 8.15288 19.5214 11.0055 18.1674C11.0175 18.9134 11.0056 19.6603 11.0106 20.4073C11.018 20.5778 11.0129 20.7486 10.9955 20.9183C8.44087 22.1237 5.88787 23.3337 3.33654 24.5483C3.06054 24.6707 2.81438 24.8514 2.61498 25.0781C2.41558 25.3048 2.26769 25.572 2.18154 25.8613C2.10066 26.1419 2.10244 26.4398 2.1867 26.7194C2.27095 26.9989 2.4341 27.2483 2.65655 27.4374C2.93046 27.6405 3.25355 27.767 3.59258 27.804C3.93161 27.8409 4.27432 27.7868 4.58553 27.6473C5.13353 27.4013 5.66654 27.1254 6.21154 26.8754C8.77154 25.6614 11.3319 24.4477 13.8925 23.2344C13.9045 21.4504 13.8925 19.6653 13.8925 17.8813V11.9503C13.8975 11.6363 13.8815 11.3213 13.9005 11.0073C14.6465 10.7023 15.3906 10.4113 16.1326 10.1113Z" fill="white"/>
<path d="M57.5512 14.5622C57.8743 14.5295 58.1996 14.5948 58.485 14.7497C58.7703 14.9045 59.0025 15.1416 59.1512 15.4302C59.2885 15.6972 59.3468 15.9979 59.3192 16.2969C59.2916 16.5959 59.1792 16.8808 58.9953 17.1182C58.8072 17.362 58.553 17.5468 58.263 17.6507C57.9731 17.7545 57.6594 17.7732 57.3592 17.7042C57.0649 17.6391 56.7952 17.4918 56.5814 17.2793C56.3675 17.0669 56.2183 16.798 56.1512 16.5042C56.0912 16.2508 56.0951 15.9865 56.1624 15.735C56.2298 15.4835 56.3587 15.2527 56.5373 15.0633C56.8041 14.7797 57.164 14.6017 57.5512 14.5622Z" fill="white"/>
<path d="M60.8751 14.5626C61.1512 14.534 61.43 14.5767 61.6849 14.6866C61.9398 14.7966 62.1623 14.9701 62.331 15.1905C62.5251 15.4471 62.6368 15.7567 62.6511 16.0781C62.6654 16.3995 62.5817 16.7178 62.4111 16.9906C62.2433 17.2571 62.0008 17.4687 61.714 17.5988C61.4271 17.729 61.1084 17.7722 60.7972 17.723C60.4861 17.6738 60.1962 17.5344 59.9635 17.3221C59.7308 17.1098 59.5655 16.8339 59.488 16.5285C59.421 16.2597 59.4256 15.9781 59.5012 15.7116C59.5768 15.4452 59.7209 15.2032 59.919 15.0096C60.1788 14.758 60.5154 14.6006 60.8751 14.5626Z" fill="white"/>
<path d="M38.6972 15.7766C39.9096 16.458 41.0734 17.2225 42.1803 18.0646C43.024 18.6915 43.7791 19.4295 44.4253 20.2585C44.7949 20.7148 45.0343 21.2625 45.1183 21.8436C45.1323 22.2436 45.1183 22.6436 45.1253 23.0366C45.1333 23.2244 45.0897 23.4108 44.9993 23.5756C44.7594 23.9493 44.4102 24.2402 43.9993 24.4086C41.9873 25.3232 39.9749 26.2379 37.9623 27.1526C37.3355 27.4346 36.6584 27.5873 35.9713 27.6016C35.52 27.6213 35.0777 27.4715 34.7313 27.1816C34.3913 26.8445 34.1888 26.3927 34.1633 25.9146C34.1236 25.2035 34.2418 24.4926 34.5093 23.8326C34.9948 22.672 35.6708 21.6006 36.5093 20.6626C37.1791 19.8892 37.9036 19.165 38.6773 18.4956C38.7083 18.2206 38.6773 17.9425 38.6893 17.6655C38.6963 17.0365 38.6882 16.4066 38.6972 15.7766ZM40.6293 20.1166C39.5651 20.806 38.5546 21.5749 37.6063 22.4166C37.1785 22.7909 36.8046 23.2226 36.4953 23.6996C36.3558 23.9087 36.2858 24.1564 36.2953 24.4076C36.3021 24.4861 36.3294 24.5614 36.3745 24.626C36.4196 24.6906 36.4809 24.7422 36.5523 24.7756C36.738 24.8504 36.939 24.8795 37.1383 24.8606C37.4844 24.8429 37.8226 24.7501 38.1293 24.5886C39.7653 23.8126 41.4013 23.0359 43.0373 22.2585C42.7578 21.8568 42.4378 21.4849 42.0823 21.1486C41.6733 20.7475 41.2391 20.3731 40.7823 20.0276C40.7283 20.0536 40.6773 20.0826 40.6293 20.1166Z" fill="white"/>
<path d="M20.1878 17.5094C20.6815 17.1955 21.2453 17.009 21.8288 16.9664C22.6717 16.8947 23.5176 17.0653 24.2668 17.4584C25.175 17.956 25.9656 18.6433 26.5848 19.4734C27.0292 20.0275 27.4028 20.6348 27.6968 21.2814C27.9375 21.8117 28.0733 22.3836 28.0968 22.9655C28.1077 23.6225 27.9115 24.2663 27.5358 24.8054C27.1641 25.3281 26.6728 25.7544 26.1028 26.0485C23.5275 27.2725 20.9512 28.4948 18.3738 29.7155C18.0738 29.8485 17.7898 30.0034 17.4878 30.1254C17.4878 29.2154 17.4878 28.3054 17.4878 27.3954C18.7478 26.7814 20.0208 26.1954 21.2878 25.5874L24.9268 23.8615C25.2268 23.7105 25.5458 23.5785 25.8458 23.4185C25.7914 23.0622 25.6906 22.7145 25.5458 22.3844C24.9518 22.6484 24.3688 22.9425 23.7778 23.2155C23.0328 23.6089 22.2476 23.921 21.4358 24.1464C20.8338 24.3151 20.1982 24.3237 19.5918 24.1714C19.3123 24.0906 19.0583 23.9393 18.8539 23.7322C18.6496 23.5251 18.5018 23.269 18.4248 22.9884C18.2694 22.1714 18.2519 21.3343 18.3728 20.5115C18.4616 19.9138 18.6595 19.3375 18.9568 18.8114C19.2585 18.2862 19.6803 17.84 20.1878 17.5094ZM20.8628 20.0094C20.564 20.2641 20.3699 20.6203 20.3178 21.0094C20.2654 21.3676 20.2796 21.7325 20.3598 22.0855C20.6188 21.9855 20.8598 21.8454 21.1158 21.7334L23.4348 20.6334C23.6558 20.5214 23.8908 20.4335 24.0998 20.3035C23.8945 20.052 23.6335 19.8516 23.3373 19.7185C23.0412 19.5854 22.7182 19.523 22.3938 19.5364C21.8459 19.5197 21.3079 19.6851 20.8638 20.0065L20.8628 20.0094Z" fill="white"/>
<path d="M50.2908 19.1302C50.3895 19.0784 50.4921 19.0346 50.5978 18.9993C50.6158 20.2893 50.5979 21.5793 50.6059 22.8693C50.615 23.472 50.4444 24.0638 50.1159 24.5692C49.7452 25.1348 49.2347 25.595 48.6338 25.9053C45.8445 27.2326 43.0531 28.5573 40.2598 29.8793C40.1757 29.9229 40.0885 29.9599 39.9988 29.9902C39.9988 29.0832 39.9938 28.1762 39.9988 27.2692C40.0774 27.2138 40.1628 27.1689 40.2528 27.1353C43.0108 25.8239 45.7695 24.5146 48.5288 23.2073C48.5518 22.1263 48.5229 21.0422 48.5429 19.9602C49.1249 19.6772 49.7118 19.4102 50.2908 19.1302Z" fill="white"/>
<path d="M108.129 1.84741H108.447C108.707 1.87032 108.962 1.93606 109.2 2.04196C109.873 2.38125 110.454 2.87877 110.892 3.49182C111.627 4.48773 112.246 5.56464 112.735 6.70148C113.352 8.06498 113.86 9.47757 114.372 10.8829C114.458 11.141 114.568 11.391 114.637 11.6546C113.855 11.7628 113.08 11.9119 112.302 12.0464C112.236 11.9158 112.178 11.7813 112.129 11.6437C111.829 10.8997 111.432 10.1988 110.947 9.55939C110.597 9.07748 110.121 8.70034 109.572 8.46858C109.165 8.31816 108.719 8.31175 108.309 8.45041C107.844 8.61665 107.42 8.88147 107.067 9.2267C106.374 9.90876 105.782 10.6855 105.308 11.5337C104.763 12.4427 104.322 13.4126 103.853 14.3616C102.328 17.4632 100.803 20.5647 99.2785 23.6662C99.1139 23.9853 98.9722 24.3152 98.7949 24.627C98.7349 24.6024 98.674 24.5779 98.6131 24.5488C97.8132 24.1407 96.9769 23.7925 96.2224 23.3071C96.2518 23.1885 96.2945 23.0735 96.3497 22.9644C97.1851 20.9928 98.0368 19.0275 98.8949 17.065C99.9266 14.708 100.967 12.3537 102.047 10.0175C102.605 8.81855 103.167 7.61958 103.783 6.44879C104.117 5.77592 104.49 5.12278 104.899 4.49261C105.368 3.736 105.956 3.06059 106.641 2.4928C107.067 2.14208 107.583 1.91841 108.129 1.84741Z" fill="white"/>
<path d="M114.635 15.2455C115.113 15.2133 115.593 15.2057 116.072 15.2227C117.059 17.7497 117.991 20.2968 118.849 22.8692C119.721 25.4133 120.445 28.0055 121.017 30.633C121.271 31.7929 121.398 32.9771 121.394 34.1645C121.383 34.4864 121.334 34.8058 121.248 35.1162C121.161 35.3966 121.012 35.654 120.813 35.8701C120.614 36.0862 120.37 36.2556 120.097 36.3661C119.534 36.579 118.928 36.6538 118.33 36.5843C117.598 36.5141 116.877 36.3663 116.177 36.1434C114.945 35.7499 113.743 35.2693 112.579 34.7053C111.482 34.1927 110.423 33.6055 109.334 33.0774C108.906 32.8619 108.467 32.6647 108.043 32.441C108.11 32.3772 108.184 32.3214 108.264 32.2747C108.835 31.8772 109.402 31.4733 109.965 31.063C110.217 30.8812 110.457 30.6875 110.713 30.5176C110.921 30.6085 111.111 30.7303 111.312 30.8321C111.922 31.1711 112.553 31.4705 113.202 31.7284C113.768 31.967 114.374 32.0959 114.988 32.1083C115.615 32.1131 116.219 31.8708 116.669 31.4338C117.01 31.0017 117.209 30.4752 117.24 29.9258C117.304 29.1418 117.278 28.3532 117.163 27.5751C116.963 26.1592 116.668 24.7586 116.278 23.3828C115.539 20.6758 114.609 18.0197 113.618 15.3973L113.604 15.3227C113.946 15.28 114.292 15.2745 114.635 15.2455Z" fill="white"/>
<path d="M96.0742 15.8706C97.085 15.6715 98.1004 15.4925 99.1139 15.3088C99.0714 15.433 99.0212 15.5544 98.9639 15.6724C98.6748 16.3323 98.3849 16.9905 98.0994 17.6513C98.0831 17.6948 98.0584 17.7346 98.0267 17.7686C97.0161 18.0922 96.0582 18.5616 95.1834 19.1621C94.6979 19.4846 94.2992 19.9216 94.0226 20.4347C93.9264 20.6345 93.8723 20.8519 93.8637 21.0735C93.8551 21.2951 93.8922 21.5161 93.9726 21.7227C94.1836 22.2026 94.5058 22.6254 94.9125 22.9562C95.6131 23.5347 96.3832 24.0233 97.205 24.4107C97.6249 24.6261 98.0658 24.7997 98.4776 25.0251C101.035 26.3268 103.688 27.4267 106.321 28.562C106.51 28.6529 106.709 28.7139 106.896 28.8048C106.732 28.9245 106.56 29.0337 106.382 29.132C105.746 29.5129 105.11 29.8892 104.462 30.2555C104.281 30.3464 104.117 30.4673 103.93 30.5446C103.731 30.4792 103.543 30.3837 103.351 30.301C99.3045 28.463 95.2909 26.5562 91.3101 24.5806C90.3502 24.1586 89.4451 23.6214 88.6149 22.9808C88.1708 22.6381 87.7789 22.2327 87.4514 21.7773C87.148 21.363 86.9884 20.8608 86.9969 20.3474C87.0368 19.9108 87.2215 19.5 87.5214 19.1803C87.8802 18.7915 88.2987 18.4625 88.7613 18.2058C89.692 17.6919 90.6743 17.2775 91.6919 16.9696C93.1326 16.5274 94.5954 16.1606 96.0742 15.8706Z" fill="white"/>
<path d="M114.076 12.2397C116.374 11.8387 118.698 11.6054 121.029 11.5415C121.725 11.5304 122.422 11.5608 123.114 11.6325C123.731 11.685 124.34 11.8023 124.932 11.9824C125.443 12.1324 125.919 12.3851 126.329 12.7251C126.621 12.9775 126.833 13.3099 126.939 13.6813C127.062 14.2884 126.987 14.9193 126.724 15.4802C126.304 16.4059 125.748 17.2638 125.074 18.0254C124.263 18.9725 123.395 19.8689 122.474 20.7097C121.624 21.4942 120.747 22.2551 119.861 22.995C119.748 23.0931 119.627 23.1801 119.497 23.2549C119.252 22.5332 119.005 21.8124 118.77 21.0879C118.855 20.9779 118.98 20.9061 119.07 20.8034C119.423 20.3992 119.735 19.9607 120 19.4944C120.336 18.9352 120.518 18.2969 120.526 17.6446C120.518 17.1671 120.365 16.7035 120.087 16.3147C119.737 15.8335 119.267 15.4524 118.724 15.2094C118.147 14.9449 117.525 14.793 116.891 14.7622C115.72 14.6985 114.545 14.7288 113.379 14.853C109.996 15.2415 106.637 15.8181 103.318 16.5802C103.682 15.8093 104.068 15.053 104.437 14.2858C104.461 14.2058 104.547 14.1949 104.619 14.1804C106.346 13.8341 108.059 13.4041 109.788 13.0541C111.211 12.7499 112.64 12.4784 114.076 12.2397Z" fill="white"/>
<path d="M115.22 23.9949C115.418 23.8613 115.601 23.7058 115.799 23.5713C115.825 23.6033 115.843 23.6415 115.85 23.6822C115.968 24.1367 116.073 24.5848 116.185 25.0366C116.22 25.152 116.244 25.2704 116.256 25.3902C115.766 25.7893 115.296 26.2083 114.813 26.6174C112.949 28.193 111.024 29.6955 109.038 31.1251C106.955 32.6324 104.787 34.0168 102.543 35.2711C100.932 36.1741 99.251 36.9477 97.5171 37.5845C96.8162 37.8257 96.092 37.9933 95.3564 38.0844C95.1122 38.1234 94.8654 38.1435 94.6182 38.1444C93.8986 38.192 93.1803 38.0344 92.5466 37.6899C92.1461 37.4414 91.8312 37.0763 91.644 36.6437C91.4577 36.2046 91.3675 35.7306 91.3795 35.2538C91.3795 35.042 91.3795 34.8302 91.3886 34.6175C91.4394 34.1793 91.5122 33.744 91.6067 33.3131C91.7831 32.6213 92.0176 31.9496 92.2476 31.2706C92.5706 30.3616 92.9342 29.4674 93.3384 28.5881C93.6384 27.9228 93.9721 27.2732 94.3383 26.6419C94.3787 26.646 94.418 26.6571 94.4546 26.6746C95.2455 27.0619 96.0418 27.4364 96.8344 27.8191C96.9405 27.8589 97.0412 27.9117 97.1344 27.9763C97.0553 28.1581 96.9526 28.3245 96.888 28.5099C96.7036 28.9967 96.5491 29.4942 96.4254 29.9998C96.3031 30.4646 96.242 30.9435 96.2436 31.4242C96.2143 31.8724 96.3164 32.3193 96.5372 32.7104C96.706 32.9735 96.9558 33.1745 97.2489 33.2831C97.6877 33.424 98.1543 33.4552 98.6079 33.374C99.2758 33.2622 99.9288 33.0743 100.554 32.814C101.758 32.2843 102.934 31.6945 104.078 31.0469C106.24 29.8434 108.343 28.5399 110.42 27.1991C112.032 26.1562 113.632 25.0881 115.22 23.9949Z" fill="white"/>
</svg>
